<?xml version="1.0" encoding="UTF-8" standalone="no" ?>
<!DOCTYPE svg PUBLIC "-//W3C//DTD SVG 1.1//EN" "http://www.w3.org/Graphics/SVG/1.1/DTD/svg11.dtd">
<svg xmlns="http://www.w3.org/2000/svg" xmlns:xlink="http://www.w3.org/1999/xlink" version="1.1" width="400" height="400" viewBox="0 0 400 400" xml:space="preserve">
<desc>Created with Fabric.js 3.6.2</desc>
<defs>
</defs>
<g transform="matrix(0.42 0 0 0.42 200 200)"  >
<path style="stroke: none; stroke-width: 1; stroke-dasharray: none; stroke-linecap: butt; stroke-dashoffset: 0; stroke-linejoin: miter; stroke-miterlimit: 4; fill: rgb(209,213,214); fill-rule: nonzero; opacity: 1;"  transform=" translate(-256.01, -256)" d="M 186.62 464 H 160 a 16 16 0 0 1 -14.57 -22.6 l 64.46 -142.25 L 113.1 297 L 77.8 339.77 C 71.07 348.23 65.7 352 52 352 H 34.08 a 17.66 17.66 0 0 1 -14.7 -7.06 c -2.38 -3.21 -4.72 -8.65 -2.44 -16.41 l 19.82 -71 c 0.15 -0.53 0.33 -1.06 0.53 -1.58 a 0.38 0.38 0 0 0 0 -0.15 a 14.82 14.82 0 0 1 -0.53 -1.59 L 16.92 182.76 c -2.15 -7.61 0.2 -12.93 2.56 -16.06 a 16.83 16.83 0 0 1 13.6 -6.7 H 52 c 10.23 0 20.16 4.59 26 12 l 34.57 42.05 l 97.32 -1.44 l -64.44 -142 A 16 16 0 0 1 160 48 h 26.91 a 25 25 0 0 1 19.35 9.8 l 125.05 152 l 57.77 -1.52 c 4.23 -0.23 15.95 -0.31 18.66 -0.31 C 463 208 496 225.94 496 256 c 0 9.46 -3.78 27 -29.07 38.16 c -14.93 6.6 -34.85 9.94 -59.21 9.94 c -2.68 0 -14.37 -0.08 -18.66 -0.31 l -57.76 -1.54 l -125.36 152 A 25 25 0 0 1 186.62 464 Z" stroke-linecap="round" />
</g>
</svg>